:version 1.10
:name ASF
:units
  mass 1
  length 1
  angle deg
:documentation
  ASF file generated by Kaydara
:root
  axis xyz
  order  tx ty tz rx ry rz
  position 0 0 0
  orientation 0 0 0
:bonedata
  begin
    id 1
    name LeftUpLegDummy
    direction 1 -2.30186e-007 -8.31532e-007
    length 2.93387
    axis 0 0 0 xyz
  end
  begin
    id 2
    name LeftUpLeg
    direction -1.82929e-007 -1 -1.48925e-009
    length 17.3336
    axis -3.48766 0.00143442 -0.000521554 xyz
    dof rx ry rz
  end
  begin
    id 3
    name LeftLeg
    direction -1.82929e-007 -1 -5.23717e-011
    length 14.9995
    axis 3.68178 -0.00654042 -0.000282425 xyz
    dof rx ry rz
  end
  begin
    id 4
    name LeftFoot
    direction 8.31532e-007 -4.54534e-011 1
    length 6.74421
    axis 1.87234e-006 4.66016e-005 -5.96866e-006 xyz
    dof rx ry rz
  end
  begin
    id 5
    name LeftToes
    direction 0.00818058 -0.00485161 0.999955
    length 3.85048
    axis 1.06247e-005 4.65869e-005 -5.96999e-006 xyz
    dof rx ry rz
  end
  begin
    id 6
    name SpineDummy
    direction -5.8607e-008 0.943407 -0.331637
    length 5.93572
    axis 0 0 0 xyz
  end
  begin
    id 7
    name Spine
    direction -1.04988e-007 0.999988 0.00495137
    length 10.1015
    axis -0.001389 0.000121417 6.61666e-006 xyz
    dof rx ry rz
  end
  begin
    id 8
    name Spine1
    direction 0 0 0
    length 0
    axis -0.001389 0.00012144 6.56766e-006 xyz
    dof rx ry rz
  end
  begin
    id 9
    name RightShoulderDummy
    direction -0.98348 0.17941 -0.0240696
    length 3.59882
    axis -0.001389 0.00012144 6.56766e-006 xyz
  end
  begin
    id 10
    name RightShoulder
    direction -0.978693 0.204882 0.0135597
    length 2.70001
    axis 0.215806 0.000203631 -0.00679732 xyz
    dof rx ry rz
  end
  begin
    id 11
    name RightArm
    direction -1 3.85509e-006 8.31394e-007
    length 10.2459
    axis -23.2009 -0.134239 -0.964098 xyz
    dof rx ry rz
  end
  begin
    id 12
    name RightForeArm
    direction -1 3.85569e-006 8.3129e-007
    length 8.16799
    axis -9.92322 0.0658061 0.17887 xyz
    dof rx ry rz
  end
  begin
    id 13
    name RightHand
    direction -0.992843 -0.0414604 0.112003
    length 5.28593
    axis -0.00960638 0.00330669 -0.185225 xyz
    dof rx ry rz
  end
  begin
    id 14
    name LeftShoulder1Dummy
    direction 0.983523 0.179172 -0.0240748
    length 3.59866
    axis -0.001389 0.00012144 6.56766e-006 xyz
  end
  begin
    id 15
    name LeftShoulder1
    direction 0.978627 0.205195 0.0135605
    length 2.70019
    axis -0.001389 0.00012144 6.57583e-006 xyz
    dof rx ry rz
  end
  begin
    id 16
    name LeftArm
    direction 1 3.51895e-006 -8.60188e-007
    length 10.2459
    axis -23.1894 0.134785 0.967513 xyz
    dof rx ry rz
  end
  begin
    id 17
    name LeftForeArm
    direction 1 3.51921e-006 -7.32029e-007
    length 8.16799
    axis -9.91835 -0.0656957 -0.177789 xyz
    dof rx ry rz
  end
  begin
    id 18
    name LeftHand
    direction 0.992938 -0.0411636 0.11126
    length 5.32135
    axis -0.00960237 -0.00340661 0.185177 xyz
    dof rx ry rz
  end
  begin
    id 19
    name HEadDummy
    direction 1.01974e-006 0.999861 -0.016675
    length 2.99946
    axis -0.001389 0.00012144 6.56766e-006 xyz
  end
  begin
    id 20
    name HEad
    direction -0.0222689 0.980941 0.193023
    length 5.12695
    axis -0.001389 0.00012144 6.56766e-006 xyz
    dof rx ry rz
  end
  begin
    id 21
    name RightUpLegDummy
    direction -1 2.30186e-007 8.31532e-007
    length 2.93387
    axis 0 0 0 xyz
  end
  begin
    id 22
    name RightUpLeg
    direction -1.82966e-007 -1 1.56832e-007
    length 17.3336
    axis -3.4909 -0.000906625 0.00028951 xyz
    dof rx ry rz
  end
  begin
    id 23
    name RightLeg
    direction -1.82786e-007 -1 -1.80317e-007
    length 14.9995
    axis 3.68513 0.0193739 -0.131021 xyz
    dof rx ry rz
  end
  begin
    id 24
    name RightFoot
    direction 8.31721e-007 -4.63324e-011 1
    length 6.74421
    axis 4.81691e-005 -0.120479 -0.188785 xyz
    dof rx ry rz
  end
  begin
    id 25
    name RightToes
    direction 0.00124746 -0.014064 0.9999
    length 3.85082
    axis 0.000481921 0.542163 -0.142575 xyz
    dof rx ry rz
  end
:hierarchy
  begin
    root LeftUpLegDummy SpineDummy RightUpLegDummy
    LeftUpLegDummy LeftUpLeg
    LeftUpLeg LeftLeg
    LeftLeg LeftFoot
    LeftFoot LeftToes
    SpineDummy Spine
    Spine Spine1
    Spine1 RightShoulderDummy LeftShoulder1Dummy HEadDummy
    RightShoulderDummy RightShoulder
    RightShoulder RightArm
    RightArm RightForeArm
    RightForeArm RightHand
    LeftShoulder1Dummy LeftShoulder1
    LeftShoulder1 LeftArm
    LeftArm LeftForeArm
    LeftForeArm LeftHand
    HEadDummy HEad
    RightUpLegDummy RightUpLeg
    RightUpLeg RightLeg
    RightLeg RightFoot
    RightFoot RightToes
  end

:SAMPLES-PER-SECOND 30
:FULLY-SPECIFIED
:DEGREES
147
root  7.18563 33.7365 -14.835 -4.10405 -44.7471 10.1189
LeftUpLeg  -11.687 14.2346 -2.61426
LeftLeg  21.0229 12.6215 3.90082
LeftFoot  -19.0695 -0.738955 -4.39733
LeftToes  -9.00793 1.85109e-006 5.31342e-008
Spine  5.96481 -3.8593 2.88667
Spine1  11.1385 -8.85193 6.57207
RightShoulder  0.118265 7.05771 14.0557
RightArm  -49.9358 -16.5834 64.8788
RightForeArm  49.6476 1.95979 0.329905
RightHand  0.908053 -17.1786 -5.63434
LeftShoulder1  0.0593426 -0.445987 -1.20257
LeftArm  11.093 -39.481 -83.6085
LeftForeArm  130.539 -52.3297 -166.493
LeftHand  1.12927 10.7446 11.5878
HEad  -6.5814 -22.5471 3.7662
RightUpLeg  -22.4509 -5.9301 -16.2502
RightLeg  29.9437 6.9599 3.41381
RightFoot  6.25896 -0.0176114 0.699585
RightToes  -45.2644 -0.261843 -0.342888
148
root  6.63583 33.7085 -15.2232 -3.63362 -44.0133 10.0828
LeftUpLeg  -11.5961 13.4018 -1.59668
LeftLeg  20.1429 12.6924 3.71217
LeftFoot  -17.9927 -0.658745 -4.15909
LeftToes  -10.8256 1.85109e-006 5.31342e-008
Spine  5.55938 -3.59581 2.65113
Spine1  10.4255 -8.25337 6.12914
RightShoulder  0.0911954 7.25797 14.1848
RightArm  -49.4919 -20.5094 65.8881
RightForeArm  57.2999 -0.173578 -0.0577796
RightHand  0.580315 -17.9963 -3.29234
LeftShoulder1  0.0609523 -0.0505465 -1.09327
LeftArm  10.3687 -38.9946 -82.5441
LeftForeArm  131.985 -51.6087 -166.834
LeftHand  1.12008 10.4237 11.8554
HEad  -5.98429 -20.3277 3.26089
RightUpLeg  -18.5955 -4.70871 -17.0851
RightLeg  29.1794 5.15578 2.44656
RightFoot  1.35043 0.00398332 0.039536
RightToes  -46.3118 -0.270765 -0.347931
149
root  6.04739 33.6747 -15.6397 -2.84469 -44.4723 9.18539
LeftUpLeg  -11.6146 13.2044 0.331386
LeftLeg  20.2209 12.8388 3.77294
LeftFoot  -17.0121 -0.597715 -3.99495
LeftToes  -11.9269 1.85109e-006 5.31342e-008
Spine  5.40755 -3.25145 2.56286
Spine1  10.1176 -7.58663 6.02776
RightShoulder  0.0745266 7.23024 14.1721
RightArm  -49.8991 -23.2506 66.8775
RightForeArm  61.6525 -0.183041 -0.0687545
RightHand  0.45036 -18.5215 -2.3907
LeftShoulder1  0.064881 0.38891 -1.01637
LeftArm  9.5981 -38.5588 -81.8292
LeftForeArm  133.454 -51.113 -167.06
LeftHand  1.13969 10.1003 12.4647
HEad  -5.48381 -16.7261 2.71504
RightUpLeg  -15.8054 -7.40304 -15.5515
RightLeg  25.7911 7.99515 3.23023
RightFoot  -1.03149 -0.00547615 -0.230948
RightToes  -44.3532 -0.254159 -0.338369
150
root  5.48242 33.6685 -16.0887 -1.24386 -45.7074 7.4749
LeftUpLeg  -12.1015 12.9053 2.78296
LeftLeg  20.8839 13.1978 4.04077
LeftFoot  -16.4298 -0.577631 -3.99951
LeftToes  -11.4415 1.85109e-006 5.31342e-008
Spine  5.22948 -2.9547 2.78009
Spine1  9.68446 -7.03813 6.50421
RightShoulder  0.0654252 7.32211 13.8808
RightArm  -50.0405 -24.6266 66.7204
RightForeArm  61.6534 -0.183041 -0.0687566
RightHand  0.464755 -18.7106 -2.44962
LeftShoulder1  0.0706221 0.733651 -1.67295
LeftArm  9.25383 -37.8199 -81.2822
LeftForeArm  135.955 -50.5649 -167.301
LeftHand  1.12127 9.16581 13.5398
HEad  -4.64929 -10.4881 1.05997
RightUpLeg  -14.8456 -10.5069 -12.7841
RightLeg  22.6747 11.6533 3.97675
RightFoot  -0.95349 -0.0055325 -0.287545
RightToes  -44.6135 -0.256347 -0.339673
151
root  4.98139 33.7515 -16.5129 0.574267 -48.0139 5.46476
LeftUpLeg  -11.8502 12.1276 5.28611
LeftLeg  20.1859 13.3552 3.91285
LeftFoot  -14.0862 -0.432372 -3.49856
LeftToes  -10.4354 1.85109e-006 5.31342e-008
Spine  5.14336 -2.70233 3.21085
Spine1  9.3655 -6.62308 7.43679
RightShoulder  0.0692402 7.57712 13.5712
RightArm  -48.9793 -24.3193 64.8096
RightForeArm  58.9998 -0.177374 -0.06198
RightHand  0.488856 -18.1791 -2.68395
LeftShoulder1  0.0785727 0.801324 -2.51318
LeftArm  8.27839 -35.6903 -80.9298
LeftForeArm  140.25 -49.4691 -167.769
LeftHand  1.00696 7.54768 14.7935
HEad  -3.46722 -1.17065 -1.57933
RightUpLeg  -15.2244 -6.9066 -9.98869
RightLeg  21.5989 10.383 3.33471
RightFoot  -0.501292 -0.00248733 -0.191297
RightToes  -42.4946 -0.238711 -0.328776
152
root  4.47788 33.8354 -16.8567 1.75823 -50.2479 4.60899
LeftUpLeg  -10.9042 9.96709 6.83208
LeftLeg  17.2765 12.7584 3.05502
LeftFoot  -7.15635 -0.110023 -1.75933
LeftToes  -13.7866 1.85109e-006 5.31342e-008
Spine  4.88456 -2.82868 3.56231
Spine1  8.83922 -6.83309 8.02842
RightShoulder  0.0875222 7.56201 13.0433
RightArm  -48.1956 -22.4997 62.3448
RightForeArm  57.269 0.791156 0.111093
RightHand  0.60229 -17.2107 -3.60704
LeftShoulder1  0.073794 1.67432 -3.53245
LeftArm  6.87949 -32.145 -81.0792
LeftForeArm  145.718 -47.0167 -168.755
LeftHand  0.817238 5.28186 17.1866
HEad  -2.2163 11.1007 -4.62794
RightUpLeg  -15.7839 -4.5737 -8.21263
RightLeg  21.0919 10.2568 3.19578
RightFoot  -0.417082 -0.00198 -0.166723
RightToes  -40.4687 -0.222238 -0.317754
153
root  4.01658 33.8697 -17.1659 3.47112 -51.5537 3.5755
LeftUpLeg  -10.8279 6.85565 8.29716
LeftLeg  14.8995 10.0971 1.98967
LeftFoot  -1.78937 -0.00720955 -0.46167
LeftToes  -14.49 1.85109e-006 5.31342e-008
Spine  4.4078 -3.2576 4.08031
Spine1  7.90294 -7.57092 8.79936
RightShoulder  0.117351 6.85888 12.7288
RightArm  -48.1357 -19.5012 59.8589
RightForeArm  56.3647 2.86848 0.476982
RightHand  0.739687 -15.8027 -4.95394
LeftShoulder1  0.0629649 2.63634 -4.51802
LeftArm  6.06629 -28.9374 -81.615
LeftForeArm  150.701 -43.9516 -169.869
LeftHand  0.544049 2.99765 20.1534
HEad  -1.80712 23.0507 -6.95135
RightUpLeg  -16.0284 -5.03465 -6.43023
RightLeg  19.8222 11.9035 3.41738
RightFoot  -0.385976 -0.00373598 -0.157192
RightToes  -38.7645 -0.20869 -0.308037
154
root  3.65834 33.8633 -17.4289 5.39099 -52.7412 2.24336
LeftUpLeg  -11.5488 4.16516 9.60797
LeftLeg  14.7994 7.4377 1.45546
LeftFoot  -1.48994 -0.00461809 -0.355164
LeftToes  -9.29632 1.85109e-006 5.31342e-008
Spine  4.04282 -3.4366 4.70434
Spine1  7.12772 -7.8086 9.72636
RightShoulder  0.137177 5.42027 12.7338
RightArm  -46.8065 -15.9473 57.6683
RightForeArm  52.8914 6.71149 1.16209
RightHand  0.733203 -14.511 -5.38189
LeftShoulder1  0.0594304 2.86809 -5.46887
LeftArm  5.7967 -27.0116 -82.0956
LeftForeArm  154.307 -41.5833 -170.653
LeftHand  0.28276 1.3841 22.6108
HEad  -2.2407 32.7204 -9.30289
RightUpLeg  -16.3837 -6.27707 -4.63878
RightLeg  18.8154 14.3106 3.82751
RightFoot  -0.245575 -0.0075705 -0.135611
RightToes  -37.3458 -0.197635 -0.299643
155
root  3.35494 33.8532 -17.6253 6.08044 -54.1928 1.84757
LeftUpLeg  -11.9968 2.08909 10.0017
LeftLeg  15.6434 6.64572 1.40269
LeftFoot  -0.316103 -0.000583295 -0.211458
LeftToes  -6.71969 1.85109e-006 5.31342e-008
Spine  4.05407 -3.23556 5.02464
Spine1  7.14571 -7.27752 10.045
RightShoulder  0.142578 4.3675 12.9476
RightArm  -43.57 -12.735 55.7805
RightForeArm  44.1644 11.8035 2.09462
RightHand  0.766991 -14.1355 -5.80759
LeftShoulder1  0.0607265 2.49072 -5.88847
LeftArm  5.33725 -26.3148 -82.5121
LeftForeArm  156.69 -40.3254 -171.044
LeftHand  -0.019936 -0.097096 24.5464
HEad  -3.38925 39.1715 -11.7023
RightUpLeg  -16.8652 -7.63415 -3.60317
RightLeg  19.1989 17.0548 4.65998
RightFoot  -0.524573 -0.00281821 -0.238392
RightToes  -35.6953 -0.185041 -0.289537
